<svg xmlns="http://www.w3.org/2000/svg" xmlns:xlink="http://www.w3.org/1999/xlink" version="1.1" width="256" height="256" viewBox="0 0 256 256" xml:space="preserve">

<defs>
</defs>
<g style="stroke: none; stroke-width: 0; stroke-dasharray: none; stroke-linecap: butt; stroke-linejoin: miter; stroke-miterlimit: 10; fill: none; fill-rule: nonzero; opacity: 1;" transform="translate(1.4065934065934016 1.4065934065934016) scale(2.81 2.81)" >
	<path d="M 84.001 39.52 c -1.596 0 -3.188 -0.632 -4.367 -1.885 C 70.513 27.957 58.214 22.626 45 22.626 s -25.514 5.33 -34.633 15.008 c -2.271 2.413 -6.069 2.525 -8.481 0.252 c -2.412 -2.272 -2.524 -6.07 -0.252 -8.481 C 13.044 17.295 28.445 10.626 45 10.626 c 16.554 0 31.955 6.669 43.366 18.778 c 2.273 2.412 2.16 6.208 -0.251 8.481 C 86.956 38.978 85.477 39.52 84.001 39.52 z" style="stroke: none; stroke-width: 1; stroke-dasharray: none; stroke-linecap: butt; stroke-linejoin: miter; stroke-miterlimit: 10; fill: rgb(81,110,214); fill-rule: nonzero; opacity: 1;" transform=" matrix(1 0 0 1 0 0) " stroke-linecap="round" />
	<path d="M 69.376 54.355 c -1.596 0 -3.188 -0.633 -4.367 -1.885 C 59.738 46.878 52.632 43.797 45 43.797 c -7.632 0 -14.738 3.081 -20.008 8.673 c -2.272 2.411 -6.07 2.525 -8.481 0.251 c -2.412 -2.272 -2.524 -6.069 -0.252 -8.481 C 23.82 36.216 34.027 31.797 45 31.797 c 10.973 0 21.181 4.419 28.741 12.443 c 2.273 2.412 2.16 6.208 -0.251 8.481 C 72.331 53.814 70.852 54.355 69.376 54.355 z" style="stroke: none; stroke-width: 1; stroke-dasharray: none; stroke-linecap: butt; stroke-linejoin: miter; stroke-miterlimit: 10; fill: rgb(81,110,214); fill-rule: nonzero; opacity: 1;" transform=" matrix(1 0 0 1 0 0) " stroke-linecap="round" />
	<circle cx="44.997" cy="63.667" r="9.707" style="stroke: none; stroke-width: 1; stroke-dasharray: none; stroke-linecap: butt; stroke-linejoin: miter; stroke-miterlimit: 10; fill: rgb(81,110,214); fill-rule: nonzero; opacity: 1;" transform="  matrix(1 0 0 1 0 0) "/>
</g>
</svg>